<svg width="1200" height="630" viewBox="0 0 1200 630" xmlns="http://www.w3.org/2000/svg">
<!-- Background -->
<rect width="1200" height="630" fill="#0F1E36"/>
<!-- Decorative rings -->
<circle cx="1050" cy="315" r="340" fill="none" stroke="#C4922A" stroke-width="0.6" opacity="0.12"/>
<circle cx="1050" cy="315" r="240" fill="none" stroke="#C4922A" stroke-width="0.6" opacity="0.1"/>
<circle cx="1050" cy="315" r="140" fill="none" stroke="#C4922A" stroke-width="0.6" opacity="0.08"/>
<circle cx="120" cy="560" r="280" fill="none" stroke="#6155C9" stroke-width="0.6" opacity="0.07"/>
<defs>
  <radialGradient id="glowTR" cx="85%" cy="15%" r="35%">
    <stop offset="0%" stop-color="#C4922A" stop-opacity="0.08"/>
    <stop offset="100%" stop-color="#C4922A" stop-opacity="0"/>
  </radialGradient>
</defs>
<rect width="1200" height="630" fill="url(#glowTR)"/>
<!-- Logo -->
<rect x="64" y="60" width="64" height="64" rx="14" fill="#C4922A"/>
<polygon points="96,72 102.6,85.5 117.5,85.5 106,93.5 110,107 96,99 82,107 86,93.5 74.5,85.5 89.4,85.5" fill="#fff"/>
<text x="148" y="88" font-family="Georgia,serif" font-size="22" font-weight="700" fill="#fff" letter-spacing="-0.3">Divine Keys</text>
<text x="148" y="112" font-family="Arial,sans-serif" font-size="13" font-weight="400" fill="#C4922A" letter-spacing="2.5">CHRISTIAN NETWORK</text>
<line x1="64" y1="160" x2="560" y2="160" stroke="#C4922A" stroke-width="0.8" opacity="0.3"/>
<!-- Headline -->
<text x="64" y="240" font-family="Georgia,serif" font-size="62" font-weight="700" fill="#fff" letter-spacing="-1.5">Faith. Wealth.</text>
<text x="64" y="318" font-family="Georgia,serif" font-size="62" font-weight="700" fill="#F5D78E" letter-spacing="-1.5">Global impact.</text>
<text x="64" y="382" font-family="Arial,sans-serif" font-size="20" fill="rgba(255,255,255,0.5)">AI-powered tools for the Kingdom believer</text>
<!-- Pills -->
<rect x="64" y="420" width="160" height="34" rx="17" fill="rgba(97,85,201,0.18)" stroke="rgba(97,85,201,0.35)" stroke-width="1"/>
<text x="144" y="443" font-family="Arial,sans-serif" font-size="13" font-weight="600" fill="#9B8FE8" text-anchor="middle">Scripture study</text>
<rect x="236" y="420" width="150" height="34" rx="17" fill="rgba(154,94,24,0.18)" stroke="rgba(154,94,24,0.35)" stroke-width="1"/>
<text x="311" y="443" font-family="Arial,sans-serif" font-size="13" font-weight="600" fill="#C4922A" text-anchor="middle">Book publishing</text>
<rect x="398" y="420" width="170" height="34" rx="17" fill="rgba(26,122,94,0.18)" stroke="rgba(26,122,94,0.35)" stroke-width="1"/>
<text x="483" y="443" font-family="Arial,sans-serif" font-size="13" font-weight="600" fill="#4CAF94" text-anchor="middle">Global missions</text>
<line x1="64" y1="490" x2="560" y2="490" stroke="rgba(255,255,255,0.07)" stroke-width="1"/>
<text x="64" y="525" font-family="Arial,sans-serif" font-size="16" fill="rgba(255,255,255,0.3)" letter-spacing="0.5">divine-keys-christian-network.vercel.app</text>
<!-- Agent card 1 -->
<rect x="680" y="90" width="460" height="200" rx="14" fill="rgba(255,255,255,0.04)" stroke="rgba(255,255,255,0.09)" stroke-width="1"/>
<circle cx="710" cy="112" r="7" fill="#6155C9"/>
<text x="728" y="117" font-family="Arial,sans-serif" font-size="13" font-weight="600" fill="rgba(255,255,255,0.5)">Sophia · Scripture &amp; Business Coaching</text>
<line x1="680" y1="134" x2="1140" y2="134" stroke="rgba(255,255,255,0.06)" stroke-width="1"/>
<text x="710" y="164" font-family="Arial,sans-serif" font-size="14" fill="rgba(255,255,255,0.55)">The Greek word here is &#954;&#945;&#964;&#940;&#954;&#961;&#953;&#956;&#945; (G2631) —</text>
<text x="710" y="186" font-family="Arial,sans-serif" font-size="14" fill="rgba(255,255,255,0.55)">a judicial verdict of condemnation. Paul is declaring</text>
<text x="710" y="208" font-family="Arial,sans-serif" font-size="14" fill="rgba(255,255,255,0.55)">the legal case closed in Christ.</text>
<rect x="710" y="225" width="90" height="24" rx="12" fill="rgba(255,255,255,0.06)" stroke="rgba(255,255,255,0.1)" stroke-width="1"/>
<text x="755" y="242" font-family="Arial,sans-serif" font-size="11" fill="rgba(255,255,255,0.4)" text-anchor="middle">Romans 8:1</text>
<rect x="812" y="225" width="88" height="24" rx="12" fill="rgba(255,255,255,0.06)" stroke="rgba(255,255,255,0.1)" stroke-width="1"/>
<text x="856" y="242" font-family="Arial,sans-serif" font-size="11" fill="rgba(255,255,255,0.4)" text-anchor="middle">Theological</text>
<!-- Agent card 2 -->
<rect x="680" y="314" width="460" height="170" rx="14" fill="rgba(255,255,255,0.04)" stroke="rgba(255,255,255,0.09)" stroke-width="1"/>
<circle cx="710" cy="337" r="7" fill="#9A5E18"/>
<text x="728" y="342" font-family="Arial,sans-serif" font-size="13" font-weight="600" fill="rgba(255,255,255,0.5)">Scribe · Book Publishing</text>
<line x1="680" y1="358" x2="1140" y2="358" stroke="rgba(255,255,255,0.06)" stroke-width="1"/>
<text x="710" y="386" font-family="Arial,sans-serif" font-size="14" fill="rgba(255,255,255,0.55)">I've structured your three key arguments and</text>
<text x="710" y="408" font-family="Arial,sans-serif" font-size="14" fill="rgba(255,255,255,0.55)">drafted a chapter outline. eBook + paperback</text>
<text x="710" y="430" font-family="Arial,sans-serif" font-size="14" fill="rgba(255,255,255,0.55)">covers are ready to export.</text>
<rect x="710" y="446" width="108" height="24" rx="12" fill="rgba(255,255,255,0.06)" stroke="rgba(255,255,255,0.1)" stroke-width="1"/>
<text x="764" y="463" font-family="Arial,sans-serif" font-size="11" fill="rgba(255,255,255,0.4)" text-anchor="middle">Cover studio</text>
<!-- Agent card 3 -->
<rect x="680" y="510" width="460" height="80" rx="14" fill="rgba(26,122,94,0.08)" stroke="rgba(26,122,94,0.2)" stroke-width="1"/>
<circle cx="710" cy="533" r="7" fill="#1A7A5E"/>
<text x="728" y="538" font-family="Arial,sans-serif" font-size="13" font-weight="600" fill="rgba(255,255,255,0.5)">Bible Study Companion</text>
<line x1="680" y1="554" x2="1140" y2="554" stroke="rgba(26,122,94,0.15)" stroke-width="1"/>
<text x="710" y="576" font-family="Arial,sans-serif" font-size="13" fill="rgba(255,255,255,0.45)">Reader-led · Hebrew &amp; Greek lookup · Insight journal</text>
</svg>
